<svg width="24" height="25" viewBox="0 0 24 25" fill="none" xmlns="http://www.w3.org/2000/svg">
<path d="M3.02388 17.431L6.38721 14.859C6.1949 14.2749 6.09091 13.65 6.09091 13C6.09091 12.35 6.1949 11.7252 6.38721 11.141L3.02388 8.56909C2.36791 9.90275 2 11.4063 2 13C2 14.5937 2.36791 16.0973 3.02388 17.431Z" fill="white"/>
<path d="M6.38719 11.141C7.16319 8.78407 9.37724 7.09091 12 7.09091C13.4091 7.09091 14.6818 7.59091 15.6818 8.40909L18.5909 5.5C16.8182 3.95455 14.5454 3 12 3C8.04822 3 4.65044 5.2621 3.02386 8.56906L6.38719 11.141Z" fill="white"/>
<path d="M12 23C8.04713 23 4.64856 20.7367 3.02252 17.4282L6.38448 14.8507C7.15801 17.212 9.37417 18.9091 12 18.9091C13.2849 18.9091 14.4234 18.6065 15.325 18.0375L18.5179 20.5095C16.7701 22.1347 14.4391 23 12 23Z" fill="white"/>
<path d="M12 11.1818H21.3182C21.4545 11.7727 21.5455 12.4091 21.5455 13C21.5455 16.2593 20.3531 18.8032 18.5179 20.5095L15.325 18.0375C16.369 17.3786 17.0953 16.3626 17.3636 15.0455H12V11.1818Z" fill="white"/>
</svg>
