<svg width="25" height="25" viewBox="0 0 25 25" fill="none" xmlns="http://www.w3.org/2000/svg">
<path d="M17.6465 12.512C17.6385 11.0372 18.3055 9.92403 19.6558 9.10423C18.9003 8.02323 17.759 7.42848 16.252 7.31194C14.8254 7.19942 13.2662 8.14379 12.6956 8.14379C12.0928 8.14379 10.7104 7.35213 9.62539 7.35213C7.38302 7.3883 5 9.1404 5 12.7049C5 13.7578 5.19289 14.8455 5.57868 15.968C6.09306 17.4428 7.94964 21.0595 9.8866 20.9993C10.8993 20.9751 11.6146 20.2799 12.9327 20.2799C14.2106 20.2799 14.8737 20.9993 16.0029 20.9993C17.9559 20.9711 19.6357 17.6839 20.126 16.2051C17.5058 14.9714 17.6465 12.5884 17.6465 12.512ZM15.372 5.91348C16.469 4.61145 16.3686 3.42597 16.3364 3C15.368 3.05626 14.2468 3.65905 13.6078 4.40249C12.9046 5.19817 12.4906 6.18272 12.5791 7.29185C13.6279 7.37222 14.5843 6.83373 15.372 5.91348Z" fill="white"/>
</svg>
